<?xml version="1.0" encoding="UTF-8"?>
<svg id="Layer_1" data-name="Layer 1" xmlns="http://www.w3.org/2000/svg" viewBox="0 0 920.03 374.73">
  <defs>
    <style>
      .cls-1 {
        isolation: isolate;
      }

      .cls-2 {
        fill: #86a286;
      }

      .cls-2, .cls-3 {
        stroke-width: 0px;
      }

      .cls-3 {
        fill: #e08d6c;
      }
    </style>
  </defs>
  <g class="cls-1">
    <g class="cls-1">
      <path class="cls-3" d="m363.07,168.33c-1.93-1.99-2.9-5.77-2.9-11.33,0-3.75.39-8.55,1.18-14.41.78-5.86,2.08-13.93,3.9-24.2,3.14-18.97,5.62-35.41,7.43-49.31,1.09-8.7,1.63-15.95,1.63-21.76,0-5.44-1.99-8.16-5.98-8.16-3.14,0-6.92,1.6-11.33,4.8-4.41,3.2-9.28,8.31-14.59,15.32-1.69,2.3-3.57,3.44-5.62,3.44-1.69,0-3.17-.82-4.44-2.45s-1.9-3.47-1.9-5.53c0-1.93.39-3.9,1.18-5.89.78-1.99,2.08-4.26,3.9-6.8,5.8-8.1,12.27-14.35,19.4-18.76,7.13-4.41,14.26-6.62,21.39-6.62,6.65,0,11.75,2.12,15.32,6.35,3.56,4.23,5.35,10.4,5.35,18.49,0,3.26-.3,7.1-.91,11.51-.61,4.41-1.15,8.01-1.63,10.79-.48,2.78-.85,4.71-1.09,5.8,6.89-19.7,14.62-33.45,23.21-41.25,8.58-7.8,18.01-11.69,28.28-11.69,7.85,0,14.05,2.78,18.58,8.34,4.53,5.56,6.8,13.42,6.8,23.57,0,3.99-.54,8.95-1.63,14.87,6.04-16.68,13.11-28.65,21.21-35.9,8.1-7.25,17.4-10.88,27.92-10.88,8.46,0,14.96,2.72,19.49,8.16,4.53,5.44,6.8,13.05,6.8,22.84,0,5.32-.79,11.78-2.36,19.4l-11.06,51.85c-1.21,6.04-1.81,11.24-1.81,15.59,0,5.08,1.18,8.88,3.54,11.42,2.36,2.54,5.65,3.81,9.88,3.81,3.99,0,7.89-1.33,11.69-3.99,3.81-2.66,8.31-7.07,13.51-13.23,1.45-1.69,3.08-2.54,4.9-2.54,1.57,0,2.81.72,3.72,2.18.91,1.45,1.36,3.44,1.36,5.98,0,4.71-1.15,8.46-3.44,11.24-6.29,7.62-12.51,13.18-18.67,16.68-6.17,3.51-12.63,5.26-19.4,5.26-10.27,0-18.31-3.05-24.11-9.16-5.8-6.1-8.7-14.29-8.7-24.57,0-7.13,1.45-17.46,4.35-31l7.25-33.18c.24-1.09.66-3.02,1.27-5.8.6-2.78,1.09-5.41,1.45-7.89.36-2.48.54-4.92.54-7.34,0-4.23-.82-7.4-2.45-9.52-1.63-2.11-3.96-3.17-6.98-3.17-5.68,0-11.63,3.66-17.86,10.97-6.23,7.31-12.15,19.43-17.77,36.35-5.62,16.92-10.18,38.92-13.69,65.99-.85,7.25-2.33,12.12-4.44,14.59-2.12,2.48-5.53,3.72-10.24,3.72-4.11,0-7.1-.97-8.97-2.9-1.88-1.93-2.81-5.56-2.81-10.88,0-4.96.66-11.45,1.99-19.49,1.33-8.04,3.02-17.5,5.08-28.37,5.56-29.25,8.34-48.1,8.34-56.57,0-4.59-.88-7.98-2.63-10.15-1.75-2.18-4.38-3.26-7.89-3.26-5.92,0-12.03,3.35-18.31,10.06-6.29,6.71-12.42,18.61-18.4,35.72-5.98,17.1-10.97,40.22-14.96,69.35-.85,6.16-2.08,10.46-3.72,12.87-1.63,2.42-4.8,3.63-9.52,3.63s-7.68-1-9.61-2.99Z"/>
    </g>
    <g class="cls-1">
      <path class="cls-3" d="m647.26,132.17c.91,1.45,1.36,3.44,1.36,5.98,0,4.84-1.15,8.58-3.45,11.24-4.47,5.44-10.79,10.46-18.95,15.05-8.16,4.59-16.89,6.89-26.2,6.89-12.69,0-22.54-3.44-29.55-10.33-7.01-6.89-10.52-16.32-10.52-28.28,0-8.34,1.75-16.1,5.26-23.3,3.5-7.19,8.37-12.9,14.59-17.13,6.22-4.23,13.26-6.34,21.12-6.34,7.01,0,12.63,2.08,16.86,6.25,4.23,4.17,6.35,9.82,6.35,16.95,0,8.34-2.99,15.5-8.97,21.48-5.98,5.98-16.11,10.73-30.37,14.23,3.02,5.56,8.76,8.34,17.22,8.34,5.44,0,11.63-1.9,18.58-5.71,6.95-3.81,12.96-8.79,18.04-14.96,1.45-1.69,3.08-2.54,4.9-2.54,1.57,0,2.81.72,3.72,2.18Zm-60.74-20.67c-3.08,5.2-4.62,11.48-4.62,18.86v.36c7.13-1.69,12.75-4.23,16.86-7.61,4.11-3.38,6.16-7.31,6.16-11.78,0-2.29-.63-4.14-1.9-5.53-1.27-1.39-2.99-2.08-5.17-2.08-4.47,0-8.25,2.6-11.33,7.8Z"/>
    </g>
    <g class="cls-1">
      <path class="cls-3" d="m637.38,163.17c-4.47-5.44-6.71-12.57-6.71-21.39,0-9.67,2.23-18.82,6.71-27.47,4.47-8.64,10.42-15.59,17.86-20.85,7.43-5.26,15.32-7.89,23.66-7.89,2.66,0,4.44.52,5.35,1.54.91,1.03,1.66,2.87,2.27,5.53,2.54-.48,5.2-.73,7.98-.73,5.92,0,8.88,2.12,8.88,6.35,0,2.54-.91,8.58-2.72,18.13-2.78,13.9-4.17,23.57-4.17,29.01,0,1.81.45,3.26,1.36,4.35.91,1.09,2.08,1.63,3.54,1.63,2.29,0,5.08-1.48,8.34-4.44,3.26-2.96,7.67-7.76,13.24-14.41,1.45-1.69,3.08-2.54,4.9-2.54,1.57,0,2.81.72,3.72,2.18.91,1.45,1.36,3.44,1.36,5.98,0,4.84-1.15,8.58-3.45,11.24-4.96,6.17-10.21,11.36-15.77,15.59-5.56,4.23-10.94,6.35-16.14,6.35-3.99,0-7.65-1.36-10.97-4.08-3.33-2.72-5.83-6.44-7.52-11.15-6.29,10.15-14.2,15.23-23.75,15.23-7.5,0-13.48-2.72-17.95-8.16Zm32.09-14.87c2.42-3.14,4.17-7.31,5.26-12.51l6.71-33.36c-5.08.12-9.76,2.03-14.05,5.71-4.29,3.69-7.71,8.55-10.24,14.59-2.54,6.04-3.81,12.45-3.81,19.22,0,3.75.75,6.53,2.27,8.34,1.51,1.81,3.59,2.72,6.25,2.72s5.2-1.57,7.61-4.71Z"/>
      <path class="cls-3" d="m790.67,132.17c.91,1.45,1.36,3.44,1.36,5.98,0,4.84-1.15,8.58-3.45,11.24-5.2,6.41-10.85,11.67-16.95,15.77-6.1,4.11-13.03,6.16-20.76,6.16-10.64,0-18.52-4.83-23.66-14.5-5.14-9.67-7.71-22.18-7.71-37.53s1.9-31.55,5.71-50.4c3.81-18.85,9.43-35.05,16.86-48.59C749.51,6.77,758.37,0,768.64,0c5.8,0,10.36,2.69,13.69,8.07,3.32,5.38,4.99,13.08,4.99,23.12,0,14.38-3.99,31.06-11.97,50.04-7.98,18.98-18.8,37.77-32.45,56.38.84,4.96,2.24,8.49,4.17,10.61,1.93,2.12,4.47,3.17,7.61,3.17,4.96,0,9.31-1.42,13.05-4.26,3.75-2.84,8.52-7.71,14.32-14.59,1.45-1.69,3.08-2.54,4.89-2.54,1.57,0,2.81.72,3.72,2.18Zm-35.44-99.17c-3.51,10.03-6.59,22.48-9.25,37.35-2.66,14.87-4.11,29.13-4.35,42.79,8.58-14.14,15.41-28.31,20.49-42.51,5.08-14.2,7.61-27.16,7.61-38.89,0-9.18-1.69-13.78-5.08-13.78-2.78,0-5.92,5.02-9.43,15.05Z"/>
    </g>
  </g>
  <g class="cls-1">
    <g class="cls-1">
      <path class="cls-2" d="m340.06,225.16c-2.54,0-4.71-.82-6.53-2.45-1.81-1.63-2.72-3.72-2.72-6.25s.91-4.77,2.72-6.34c1.81-1.57,3.99-2.36,6.53-2.36h82.31c2.66,0,4.86.82,6.62,2.45,1.75,1.63,2.63,3.72,2.63,6.25s-.88,4.78-2.63,6.35c-1.75,1.57-3.96,2.36-6.62,2.36h-82.31Zm41.15,109.5c-2.9,0-5.26-.88-7.07-2.63-1.81-1.75-2.72-3.96-2.72-6.62v-108.6h19.58v108.6c0,2.66-.94,4.87-2.81,6.62-1.88,1.75-4.2,2.63-6.98,2.63Z"/>
      <path class="cls-2" d="m498.15,237.67c8.34,0,14.8,1.78,19.4,5.35,4.59,3.57,7.82,8.37,9.7,14.41,1.87,6.04,2.81,12.69,2.81,19.94v48.04c0,2.66-.88,4.87-2.63,6.62-1.75,1.75-3.9,2.63-6.44,2.63s-4.87-.88-6.62-2.63c-1.75-1.75-2.63-3.96-2.63-6.62v-48.04c0-4.23-.58-8.07-1.72-11.51-1.15-3.44-3.11-6.22-5.89-8.34-2.78-2.11-6.71-3.17-11.78-3.17-4.71,0-8.92,1.06-12.6,3.17-3.69,2.12-6.53,4.9-8.52,8.34-1.99,3.45-2.99,7.28-2.99,11.51v48.04c0,2.66-.88,4.87-2.63,6.62-1.75,1.75-3.9,2.63-6.44,2.63s-4.87-.88-6.62-2.63c-1.75-1.75-2.63-3.96-2.63-6.62v-115.67c0-2.66.88-4.86,2.63-6.62,1.75-1.75,3.96-2.63,6.62-2.63s4.68.88,6.44,2.63c1.75,1.75,2.63,3.96,2.63,6.62v49.5l-3.26,1.81c.84-2.66,2.27-5.38,4.26-8.16,1.99-2.78,4.47-5.32,7.43-7.61,2.96-2.29,6.25-4.14,9.88-5.53,3.63-1.39,7.49-2.08,11.6-2.08Z"/>
      <path class="cls-2" d="m626.14,238.57c2.66,0,4.83.88,6.53,2.63,1.69,1.75,2.54,3.96,2.54,6.62v77.96c0,10.63-2.03,19.28-6.07,25.93-4.05,6.65-9.49,11.51-16.32,14.59-6.83,3.08-14.54,4.62-23.12,4.62-4.35,0-8.7-.39-13.05-1.18-4.35-.79-7.92-1.84-10.7-3.17-2.9-1.33-4.96-2.99-6.16-4.99-1.21-1.99-1.39-4.14-.54-6.44.84-2.9,2.29-4.87,4.35-5.89,2.05-1.03,4.17-1.12,6.35-.27,2.05.84,4.77,1.93,8.16,3.26,3.38,1.33,7.25,1.99,11.6,1.99,5.92,0,10.91-.97,14.96-2.9,4.05-1.93,7.16-4.96,9.34-9.07,2.18-4.11,3.26-9.43,3.26-15.95v-12.51l2.9,4.53c-1.93,3.87-4.5,7.13-7.71,9.79-3.2,2.66-6.92,4.71-11.15,6.16-4.23,1.45-8.95,2.18-14.14,2.18-6.65,0-12.36-1.48-17.13-4.44-4.78-2.96-8.46-7.07-11.06-12.33-2.6-5.26-3.9-11.27-3.9-18.04v-53.85c0-2.66.88-4.86,2.63-6.62,1.75-1.75,3.96-2.63,6.62-2.63s4.68.88,6.44,2.63c1.75,1.75,2.63,3.96,2.63,6.62v48.95c0,7.98,1.75,13.81,5.26,17.5,3.5,3.69,8.7,5.53,15.59,5.53,4.59,0,8.58-.97,11.97-2.9,3.38-1.93,6.04-4.62,7.98-8.07,1.93-3.45,2.9-7.46,2.9-12.06v-48.95c0-2.66.84-4.86,2.54-6.62,1.69-1.75,3.87-2.63,6.53-2.63Z"/>
      <path class="cls-2" d="m708.45,237.67c8.94,0,15.83,2.21,20.67,6.62,4.83,4.41,8.04,10.37,9.61,17.86l-2.9-.91,1.27-2.9c1.57-3.14,3.96-6.31,7.16-9.52,3.2-3.2,7.04-5.86,11.51-7.98,4.47-2.11,9.25-3.17,14.32-3.17,8.34,0,14.8,1.78,19.4,5.35,4.59,3.57,7.8,8.34,9.61,14.32,1.81,5.98,2.72,12.66,2.72,20.03v48.04c0,2.66-.85,4.87-2.54,6.62-1.69,1.75-3.87,2.63-6.53,2.63s-4.84-.88-6.53-2.63c-1.69-1.75-2.54-3.96-2.54-6.62v-47.86c0-4.23-.58-8.1-1.72-11.6-1.15-3.5-3.14-6.31-5.98-8.43-2.84-2.11-6.74-3.17-11.69-3.17s-9.07,1.06-12.69,3.17c-3.63,2.12-6.47,4.93-8.52,8.43-2.06,3.51-3.08,7.37-3.08,11.6v47.86c0,2.66-.85,4.87-2.54,6.62-1.69,1.75-3.87,2.63-6.53,2.63s-4.84-.88-6.53-2.63c-1.69-1.75-2.54-3.96-2.54-6.62v-48.04c0-4.23-.57-8.07-1.72-11.51-1.15-3.44-3.11-6.22-5.89-8.34-2.78-2.11-6.65-3.17-11.6-3.17s-8.88,1.06-12.51,3.17c-3.63,2.12-6.44,4.9-8.43,8.34-1.99,3.45-2.99,7.28-2.99,11.51v48.04c0,2.66-.88,4.87-2.63,6.62-1.75,1.75-3.9,2.63-6.44,2.63s-4.87-.88-6.62-2.63c-1.75-1.75-2.63-3.96-2.63-6.62v-76.87c0-2.66.88-4.86,2.63-6.62s3.96-2.63,6.62-2.63,4.68.88,6.44,2.63c1.75,1.75,2.63,3.96,2.63,6.62v10.7l-3.44,1.99c.84-2.66,2.24-5.38,4.17-8.16,1.93-2.78,4.38-5.32,7.34-7.61,2.96-2.29,6.25-4.17,9.88-5.62,3.63-1.45,7.55-2.17,11.78-2.17Z"/>
      <path class="cls-2" d="m871.62,336.47c-10.03,0-18.74-2.08-26.11-6.25-7.37-4.17-13.08-9.91-17.13-17.22-4.05-7.31-6.07-15.68-6.07-25.11,0-10.63,2.14-19.73,6.44-27.29,4.29-7.55,9.88-13.35,16.77-17.4,6.89-4.05,14.2-6.07,21.94-6.07,5.92,0,11.54,1.18,16.86,3.54,5.32,2.36,10.06,5.62,14.23,9.79s7.46,9.07,9.88,14.69c2.42,5.62,3.69,11.76,3.81,18.4-.12,2.42-1.09,4.41-2.9,5.98-1.81,1.57-3.93,2.36-6.34,2.36h-70.53l-4.35-15.41h68.17l-3.44,3.26v-4.53c-.36-4.23-1.81-7.91-4.35-11.06-2.54-3.14-5.65-5.62-9.34-7.43-3.69-1.81-7.59-2.72-11.69-2.72-3.63,0-7.1.58-10.42,1.72-3.33,1.15-6.29,2.99-8.88,5.53-2.6,2.54-4.65,5.89-6.16,10.06-1.51,4.17-2.27,9.34-2.27,15.5,0,6.65,1.39,12.45,4.17,17.41,2.78,4.96,6.53,8.79,11.24,11.51,4.71,2.72,9.91,4.08,15.59,4.08,4.47,0,8.13-.45,10.97-1.36,2.84-.91,5.26-2.02,7.25-3.35,1.99-1.33,3.72-2.6,5.17-3.81,1.81-1.09,3.56-1.63,5.26-1.63,2.29,0,4.17.76,5.62,2.27,1.45,1.51,2.18,3.29,2.18,5.35,0,2.66-1.33,5.08-3.99,7.25-3.26,3.14-7.77,5.92-13.51,8.34-5.74,2.42-11.76,3.63-18.04,3.63Z"/>
    </g>
  </g>
  <g>
    <g>
      <path class="cls-2" d="m136.85,183.56c-3.28,0-5.47,2.19-5.47,5.47s2.19,5.47,5.47,5.47,5.47-2.19,5.47-5.47-2.19-5.47-5.47-5.47Z"/>
      <path class="cls-2" d="m147.79,167.15c0,3.28,2.19,5.47,5.47,5.47s5.47-2.19,5.47-5.47-2.19-5.47-5.47-5.47-5.47,2.19-5.47,5.47Z"/>
      <path class="cls-2" d="m136.85,150.74c-3.28,0-5.47,2.19-5.47,5.47s2.19,5.47,5.47,5.47,5.47-2.19,5.47-5.47-2.19-5.47-5.47-5.47Z"/>
      <path class="cls-2" d="m153.25,199.97c-3.28,0-5.47,2.19-5.47,5.47s2.19,5.47,5.47,5.47,5.47-2.19,5.47-5.47-2.19-5.47-5.47-5.47Z"/>
      <path class="cls-2" d="m304.75,157.86c-2.21-2.21-5.48-2.21-7.65,0l-74.94,74.91h-74.37c0-3.27-2.21-5.45-5.48-5.45s-5.48,2.17-5.48,5.45H54.8c-3.27,0-5.48,2.21-5.48,5.48v32.81c0,25.39,13.2,47.61,33.11,60.17h-21.62l-26.8-5.48c-3.31-.53-6.01,1.64-6.58,4.38-.53,3.27,1.64,6.01,4.38,6.58l27.36,5.45h210.02l27.33-5.45c3.31-.57,4.94-3.84,4.38-6.58-.53-3.27-3.81-4.91-6.55-4.38l-26.8,5.48h-21.62c19.91-12.56,33.11-34.78,33.11-60.17v-32.81c0-3.27-2.21-5.48-5.48-5.48h-36.12l67.29-67.26c2.17-2.21,2.17-5.48,0-7.65h.02Zm-36.65,85.87v27.33c0,33.38-26.8,60.17-60.17,60.17h-87.5c-33.34,0-60.17-26.8-60.17-60.17v-27.33h207.85-.01Z"/>
      <path class="cls-2" d="m153.23,103.13L96.37,21.1c-2.74-4.38-7.12-6.58-12.03-7.12-4.94,0-9.86,1.64-13.13,4.91L5.02,85.65c-3.84,3.27-5.48,8.19-4.91,13.13.53,4.91,3.27,9.29,7.08,12.03l82.06,56.87c2.74,1.64,6.01,2.74,9.29,2.74,4.38,0,8.75-1.64,12.03-5.48l41.03-41c5.48-5.48,6.01-14.23,1.64-20.81h-.01Zm-9.82,13.7l-41.03,41c-2.21,1.67-4.91,2.2-7.12.57L13.24,101.49c-1.67-1.07-2.21-2.71-2.21-3.81s0-3.27,1.64-4.38L79.39,26.58c1.64-1.64,3.31-1.64,4.38-1.64.57,0,2.74.53,3.84,2.17l56.33,82.59c1.64,2.17,1.1,5.48-.53,7.12h0Z"/>
    </g>
    <g class="cls-1">
      <g class="cls-1">
        <path class="cls-2" d="m89.3,68.26c.45,0,1,.31,1.64.94.43.42.95,1,1.54,1.76.59.75,1.38,1.81,2.37,3.17,1.85,2.5,3.47,4.63,4.88,6.4.89,1.1,1.67,1.98,2.34,2.63.63.61,1.17.69,1.62.22.35-.36.59-.98.72-1.85.12-.87.08-2.01-.14-3.41-.08-.45,0-.8.23-1.04.19-.2.45-.28.78-.24.33.04.62.17.86.4.22.22.41.48.55.8.14.31.26.72.35,1.22.29,1.58.29,3.03,0,4.36-.29,1.32-.83,2.4-1.64,3.22-.75.77-1.57,1.12-2.46,1.06-.89-.06-1.81-.55-2.75-1.46-.38-.37-.79-.83-1.23-1.4-.44-.57-.8-1.03-1.07-1.4-.27-.37-.45-.63-.55-.78,1.51,3.01,2.24,5.45,2.18,7.32-.06,1.87-.67,3.4-1.82,4.59-.88.91-1.9,1.32-3.05,1.22-1.15-.1-2.32-.72-3.5-1.86-.46-.45-.98-1.07-1.54-1.86,1.25,2.57,1.85,4.74,1.78,6.49-.07,1.75-.69,3.24-1.88,4.46-.95.98-2,1.43-3.13,1.34-1.14-.08-2.28-.68-3.41-1.78-.62-.6-1.28-1.41-1.99-2.45l-4.77-7.11c-.56-.82-1.1-1.47-1.6-1.96-.59-.57-1.16-.86-1.72-.87-.56-.01-1.08.23-1.55.72-.45.46-.73,1.06-.85,1.8-.12.74-.11,1.76.02,3.05.03.36-.05.64-.26.85-.18.18-.4.24-.67.19-.27-.06-.55-.23-.85-.51-.55-.53-.85-1.08-.92-1.66-.18-1.58-.12-2.93.16-4.04.29-1.11.81-2.06,1.57-2.84,1.15-1.19,2.41-1.78,3.77-1.77,1.36.01,2.63.6,3.83,1.75.83.8,1.86,2.13,3.11,3.99l3.03,4.57c.1.15.28.42.53.8.25.38.5.73.75,1.05.25.32.51.62.79.89.49.48.95.74,1.38.79.43.05.81-.1,1.15-.45.64-.66.88-1.76.73-3.3-.15-1.54-.89-3.59-2.22-6.14-1.33-2.55-3.37-5.55-6.11-9-.75-.91-1.14-1.63-1.19-2.15-.05-.52.19-1.06.72-1.61.46-.48.91-.71,1.35-.71.43,0,.96.3,1.58.9.57.56,1.25,1.36,2.04,2.42.78,1.06,1.69,2.32,2.72,3.78,2.77,3.93,4.64,6.37,5.62,7.32.53.52,1.02.79,1.47.84.45.04.87-.14,1.26-.55.67-.69.96-1.77.89-3.25s-.76-3.53-2.08-6.15c-1.31-2.62-3.43-5.79-6.36-9.52-.62-.79-.98-1.42-1.08-1.88-.1-.46.12-.96.65-1.51.5-.52.98-.78,1.43-.78Z"/>
        <path class="cls-2" d="m66.54,125.29c-.42.01-.77-.12-1.05-.39-.46-.45-.67-.9-.63-1.37s.35-.95.94-1.47c1.32-1.17,2.34-2.09,3.06-2.76.72-.67,1.64-1.58,2.77-2.71-2.08-3.02-4.21-6-6.39-8.97-.8-1.08-1.75-2.31-2.84-3.69-1.09-1.38-2-2.48-2.71-3.28-.38-.42-.53-.89-.45-1.41.08-.52.33-1,.75-1.43.45-.46.91-.71,1.38-.75.47-.04.88.12,1.25.48.34.33.84.92,1.52,1.78.68.86,1.37,1.77,2.09,2.74.71.98,1.33,1.82,1.88,2.52.92,1.19,1.8,2.39,2.67,3.6.86,1.21,1.67,2.37,2.41,3.48.17.25.36.53.58.85.22.32.46.68.73,1.07,1.29-1.41,2.22-2.6,2.8-3.56.58-.96.86-1.77.85-2.41s-.28-1.22-.79-1.73c-.48-.46-1.07-.76-1.77-.9-.15-.04-.28-.11-.4-.22-.27-.26-.36-.66-.29-1.2.08-.54.27-.98.6-1.31.23-.24.49-.37.78-.39.51-.05,1.07.05,1.69.29.62.25,1.21.64,1.77,1.18,1.19,1.15,1.77,2.47,1.74,3.95-.03,1.48-.65,3.17-1.85,5.09-1.2,1.92-3.01,4.12-5.43,6.62-1.49,1.54-2.71,2.74-3.66,3.61-.94.86-1.81,1.58-2.61,2.14-.5.35-.97.54-1.39.55Z"/>
      </g>
    </g>
  </g>
</svg>